{
  "source": "C:\\Users\\Peter\\Desktop\\stuff\\MIUN\\quantitative_research\\video_compression\\videos\\HEVC_CLASS_B\\ParkScene_1920x1080_24.y4m",
  "output": "C:\\Users\\Peter\\Desktop\\stuff\\MIUN\\quantitative_research\\video_compression\\compressed_videos\\HEVC_CLASS_B\\vp9\\8\\ParkScene_1920x1080_24_vp9.webm",
  "codec": "vp9",
  "ok": "Input #0, yuv4mpegpipe, from 'C:\\Users\\Peter\\Desktop\\stuff\\MIUN\\quantitative_research\\video_compression\\videos\\HEVC_CLASS_B\\ParkScene_1920x1080_24.y4m':\n  Duration: 00:00:10.00, start: 0.000000, bitrate: 597198 kb/s\n  Stream #0:0: Video: rawvideo (I420 / 0x30323449), yuv420p(progressive), 1920x1080, 24 fps, 24 tbr, 24 tbn\n[out#0/webm @ 000001b9b2ed9b80] Codec AVOption b:a (set bitrate (in bits/s)) has not been used for any stream. The most likely reason is either wrong type (e.g. a video option with no video streams) or that it is a private option of some decoder which was not actually used for any stream.\nStream mapping:\n  Stream #0:0 -> #0:0 (rawvideo (native) -> vp9 (libvpx-vp9))\nPress [q] to stop, [?] for help\n[libvpx-vp9 @ 000001b9b2edcf40] v1.15.2-100-g40561f514\nOutput #0, webm, to 'C:\\Users\\Peter\\Desktop\\stuff\\MIUN\\quantitative_research\\video_compression\\compressed_videos\\HEVC_CLASS_B\\vp9\\8\\ParkScene_1920x1080_24_vp9.webm':\n  Metadata:\n    encoder         : Lavf62.3.100\n  Stream #0:0: Video: vp9, yuv420p(tv, progressive), 1920x1080, q=2-31, 8000 kb/s, 24 fps, 1k tbn\n    Metadata:\n      encoder         : Lavc62.11.100 libvpx-vp9\n    Side data:\n      cpb: bitrate max/min/avg: 0/0/0 buffer size: 8000000 vbv_delay: N/A\nframe=    0 fps=0.0 q=0.0 size=       0KiB time=N/A bitrate=N/A speed=N/A elapsed=0:00:00.51    \nframe=    5 fps=4.8 q=30.0 size=       0KiB time=00:00:00.20 bitrate=  18.5kbits/s speed=0.201x elapsed=0:00:01.03    \nframe=    9 fps=5.7 q=30.0 size=       0KiB time=00:00:00.37 bitrate=  10.3kbits/s speed=0.236x elapsed=0:00:01.58    \nframe=   12 fps=5.7 q=30.0 size=       0KiB time=00:00:00.45 bitrate=   8.4kbits/s speed=0.217x elapsed=0:00:02.11    \nframe=   15 fps=5.7 q=28.0 size=       0KiB time=00:00:00.62 bitrate=   6.2kbits/s speed=0.237x elapsed=0:00:02.64    \nframe=   18 fps=5.7 q=29.0 size=       0KiB time=00:00:00.75 bitrate=   5.1kbits/s speed=0.237x elapsed=0:00:03.16    \nframe=   20 fps=5.4 q=30.0 size=       0KiB time=00:00:00.83 bitrate=   4.6kbits/s speed=0.226x elapsed=0:00:03.68    \nframe=   23 fps=5.4 q=27.0 size=       0KiB time=00:00:00.95 bitrate=   4.0kbits/s speed=0.227x elapsed=0:00:04.22    \nframe=   26 fps=5.5 q=29.0 size=       0KiB time=00:00:01.08 bitrate=   3.6kbits/s speed=0.228x elapsed=0:00:04.74    \nframe=   30 fps=5.7 q=29.0 size=       0KiB time=00:00:01.25 bitrate=   3.1kbits/s speed=0.237x elapsed=0:00:05.27    \nframe=   31 fps=5.3 q=12.0 size=       0KiB time=00:00:01.29 bitrate=   3.0kbits/s speed=0.222x elapsed=0:00:05.81    \nframe=   35 fps=5.5 q=28.0 size=       0KiB time=00:00:01.45 bitrate=   2.6kbits/s speed=0.23x elapsed=0:00:06.32    \nframe=   38 fps=5.5 q=29.0 size=       0KiB time=00:00:01.58 bitrate=   2.4kbits/s speed=0.23x elapsed=0:00:06.88    \nframe=   40 fps=5.4 q=30.0 size=       0KiB time=00:00:01.66 bitrate=   2.3kbits/s speed=0.225x elapsed=0:00:07.41    \nframe=   44 fps=5.5 q=29.0 size=       0KiB time=00:00:01.83 bitrate=   2.1kbits/s speed=0.231x elapsed=0:00:07.95    \nframe=   47 fps=5.6 q=30.0 size=       0KiB time=00:00:01.95 bitrate=   2.0kbits/s speed=0.231x elapsed=0:00:08.46    \nframe=   50 fps=5.6 q=31.0 size=       0KiB time=00:00:02.08 bitrate=   1.9kbits/s speed=0.232x elapsed=0:00:08.99    \nframe=   52 fps=5.4 q=32.0 size=       0KiB time=00:00:02.16 bitrate=   1.8kbits/s speed=0.227x elapsed=0:00:09.55    \nframe=   55 fps=5.5 q=31.0 size=       0KiB time=00:00:02.29 bitrate=   1.7kbits/s speed=0.228x elapsed=0:00:10.05    \nframe=   58 fps=5.5 q=32.0 size=       0KiB time=00:00:02.41 bitrate=   1.6kbits/s speed=0.228x elapsed=0:00:10.57    \nframe=   60 fps=5.4 q=32.0 size=       0KiB time=00:00:02.50 bitrate=   1.5kbits/s speed=0.225x elapsed=0:00:11.09    \nframe=   64 fps=5.5 q=31.0 size=       0KiB time=00:00:02.66 bitrate=   1.4kbits/s speed=0.23x elapsed=0:00:11.60    \nframe=   67 fps=5.5 q=31.0 size=       0KiB time=00:00:02.79 bitrate=   1.4kbits/s speed=0.23x elapsed=0:00:12.12    \nframe=   70 fps=5.5 q=32.0 size=       0KiB time=00:00:02.91 bitrate=   1.3kbits/s speed=0.231x elapsed=0:00:12.64    \nframe=   72 fps=5.5 q=32.0 size=       0KiB time=00:00:03.00 bitrate=   1.3kbits/s speed=0.228x elapsed=0:00:13.17    \nframe=   76 fps=5.5 q=30.0 size=       0KiB time=00:00:03.16 bitrate=   1.2kbits/s speed=0.231x elapsed=0:00:13.70    \nframe=   79 fps=5.5 q=31.0 size=       0KiB time=00:00:03.29 bitrate=   1.2kbits/s speed=0.231x elapsed=0:00:14.24    \nframe=   81 fps=5.5 q=13.0 size=       0KiB time=00:00:03.37 bitrate=   1.1kbits/s speed=0.229x elapsed=0:00:14.76    \nframe=   84 fps=5.5 q=30.0 size=       0KiB time=00:00:03.50 bitrate=   1.1kbits/s speed=0.229x elapsed=0:00:15.30    \nframe=   88 fps=5.6 q=31.0 size=       0KiB time=00:00:03.66 bitrate=   1.1kbits/s speed=0.232x elapsed=0:00:15.82    \nframe=   90 fps=5.5 q=31.0 size=       0KiB time=00:00:03.75 bitrate=   1.0kbits/s speed=0.229x elapsed=0:00:16.36    \nframe=   94 fps=5.6 q=29.0 size=       0KiB time=00:00:03.91 bitrate=   1.0kbits/s speed=0.232x elapsed=0:00:16.91    \nframe=   97 fps=5.6 q=30.0 size=       0KiB time=00:00:04.04 bitrate=   1.0kbits/s speed=0.231x elapsed=0:00:17.47    \nframe=  100 fps=5.6 q=31.0 size=       0KiB time=00:00:04.16 bitrate=   0.9kbits/s speed=0.231x elapsed=0:00:17.99    \nframe=  103 fps=5.6 q=28.0 size=       0KiB time=00:00:04.29 bitrate=   0.9kbits/s speed=0.232x elapsed=0:00:18.50    \nframe=  107 fps=5.6 q=29.0 size=       0KiB time=00:00:04.45 bitrate=   0.9kbits/s speed=0.234x elapsed=0:00:19.05    \nframe=  110 fps=5.6 q=30.0 size=       0KiB time=00:00:04.58 bitrate=   0.8kbits/s speed=0.234x elapsed=0:00:19.58    \nframe=  112 fps=5.6 q=31.0 size=       0KiB time=00:00:04.66 bitrate=   0.8kbits/s speed=0.232x elapsed=0:00:20.11    \nframe=  116 fps=5.6 q=29.0 size=       0KiB time=00:00:04.83 bitrate=   0.8kbits/s speed=0.234x elapsed=0:00:20.63    \nframe=  120 fps=5.7 q=30.0 size=       0KiB time=00:00:05.00 bitrate=   0.8kbits/s speed=0.236x elapsed=0:00:21.17    \nframe=  122 fps=5.6 q=31.0 size=       0KiB time=00:00:05.08 bitrate=   0.8kbits/s speed=0.234x elapsed=0:00:21.71    \nframe=  126 fps=5.7 q=29.0 size=    5120KiB time=00:00:05.25 bitrate=7989.2kbits/s speed=0.236x elapsed=0:00:22.25    \nframe=  128 fps=5.6 q=30.0 size=    5120KiB time=00:00:05.33 bitrate=7864.3kbits/s speed=0.234x elapsed=0:00:22.78    \nframe=  132 fps=5.7 q=26.0 size=    5120KiB time=00:00:05.50 bitrate=7626.0kbits/s speed=0.236x elapsed=0:00:23.31    \nframe=  136 fps=5.7 q=27.0 size=    5120KiB time=00:00:05.66 bitrate=7401.7kbits/s speed=0.238x elapsed=0:00:23.84    \nframe=  138 fps=5.7 q=28.0 size=    5120KiB time=00:00:05.75 bitrate=7294.4kbits/s speed=0.236x elapsed=0:00:24.36    \nframe=  141 fps=5.7 q=26.0 size=    5120KiB time=00:00:05.87 bitrate=7139.2kbits/s speed=0.236x elapsed=0:00:24.89    \nframe=  145 fps=5.7 q=28.0 size=    5120KiB time=00:00:06.04 bitrate=6942.3kbits/s speed=0.238x elapsed=0:00:25.40    \nframe=  148 fps=5.7 q=28.0 size=    5120KiB time=00:00:06.16 bitrate=6801.6kbits/s speed=0.238x elapsed=0:00:25.93    \nframe=  150 fps=5.7 q=28.0 size=    5120KiB time=00:00:06.25 bitrate=6710.9kbits/s speed=0.236x elapsed=0:00:26.45    \nframe=  153 fps=5.7 q=27.0 size=    5120KiB time=00:00:06.37 bitrate=6579.3kbits/s speed=0.236x elapsed=0:00:26.97    \nframe=  157 fps=5.7 q=28.0 size=    5120KiB time=00:00:06.54 bitrate=6411.7kbits/s speed=0.238x elapsed=0:00:27.50    \nframe=  158 fps=5.6 q=28.0 size=    5120KiB time=00:00:06.58 bitrate=6371.1kbits/s speed=0.235x elapsed=0:00:28.03    \nframe=  162 fps=5.7 q=26.0 size=    5120KiB time=00:00:06.75 bitrate=6213.8kbits/s speed=0.236x elapsed=0:00:28.56    \nframe=  165 fps=5.7 q=27.0 size=    5120KiB time=00:00:06.87 bitrate=6100.8kbits/s speed=0.236x elapsed=0:00:29.07    \nframe=  168 fps=5.7 q=28.0 size=    5120KiB time=00:00:07.00 bitrate=5991.9kbits/s speed=0.237x elapsed=0:00:29.58    \nframe=  170 fps=5.6 q=29.0 size=    5120KiB time=00:00:07.08 bitrate=5921.4kbits/s speed=0.235x elapsed=0:00:30.11    \nframe=  174 fps=5.7 q=28.0 size=    5120KiB time=00:00:07.25 bitrate=5785.2kbits/s speed=0.237x elapsed=0:00:30.63    \nframe=  177 fps=5.7 q=29.0 size=    5120KiB time=00:00:07.37 bitrate=5687.2kbits/s speed=0.237x elapsed=0:00:31.16    \nframe=  178 fps=5.6 q=29.0 size=    5120KiB time=00:00:07.41 bitrate=5655.2kbits/s speed=0.234x elapsed=0:00:31.68    \nframe=  182 fps=5.6 q=27.0 size=    5120KiB time=00:00:07.58 bitrate=5531.0kbits/s speed=0.235x elapsed=0:00:32.21    \nframe=  185 fps=5.6 q=28.0 size=    5120KiB time=00:00:07.70 bitrate=5441.3kbits/s speed=0.235x elapsed=0:00:32.75    \nframe=  188 fps=5.6 q=29.0 size=    5120KiB time=00:00:07.83 bitrate=5354.4kbits/s speed=0.235x elapsed=0:00:33.27    \nframe=  191 fps=5.6 q=26.0 size=    5120KiB time=00:00:07.95 bitrate=5270.3kbits/s speed=0.235x elapsed=0:00:33.80    \nframe=  194 fps=5.6 q=28.0 size=    5120KiB time=00:00:08.08 bitrate=5188.8kbits/s speed=0.235x elapsed=0:00:34.33    \nframe=  197 fps=5.7 q=29.0 size=    5120KiB time=00:00:08.20 bitrate=5109.8kbits/s speed=0.235x elapsed=0:00:34.85    \nframe=  199 fps=5.6 q=12.0 size=    5120KiB time=00:00:08.29 bitrate=5058.5kbits/s speed=0.234x elapsed=0:00:35.38    \nframe=  202 fps=5.6 q=27.0 size=    5120KiB time=00:00:08.41 bitrate=4983.3kbits/s speed=0.234x elapsed=0:00:35.90    \nframe=  206 fps=5.7 q=29.0 size=    5120KiB time=00:00:08.58 bitrate=4886.6kbits/s speed=0.235x elapsed=0:00:36.44    \nframe=  208 fps=5.6 q=29.0 size=    5120KiB time=00:00:08.66 bitrate=4839.6kbits/s speed=0.234x elapsed=0:00:36.96    \nframe=  210 fps=5.6 q=31.0 size=    5120KiB time=00:00:08.75 bitrate=4793.5kbits/s speed=0.233x elapsed=0:00:37.48    \nframe=  214 fps=5.6 q=30.0 size=    5120KiB time=00:00:08.91 bitrate=4703.9kbits/s speed=0.235x elapsed=0:00:38.00    \nframe=  216 fps=5.6 q=30.0 size=    5120KiB time=00:00:09.00 bitrate=4660.3kbits/s speed=0.233x elapsed=0:00:38.54    \nframe=  216 fps=5.5 q=30.0 size=    5120KiB time=00:00:09.00 bitrate=4660.3kbits/s speed=0.23x elapsed=0:00:39.06    \nframe=  216 fps=5.5 q=30.0 size=    5120KiB time=00:00:09.00 bitrate=4660.3kbits/s speed=0.227x elapsed=0:00:39.57    \nframe=  216 fps=5.4 q=30.0 size=    5120KiB time=00:00:09.00 bitrate=4660.3kbits/s speed=0.224x elapsed=0:00:40.09    \nframe=  216 fps=5.3 q=30.0 size=    5120KiB time=00:00:09.00 bitrate=4660.3kbits/s speed=0.222x elapsed=0:00:40.61    \nframe=  216 fps=5.2 q=30.0 size=    5120KiB time=00:00:09.00 bitrate=4660.3kbits/s speed=0.219x elapsed=0:00:41.17    \nframe=  216 fps=5.2 q=30.0 size=    5120KiB time=00:00:09.00 bitrate=4660.3kbits/s speed=0.216x elapsed=0:00:41.73    \nframe=  216 fps=5.1 q=30.0 size=    5120KiB time=00:00:09.00 bitrate=4660.3kbits/s speed=0.213x elapsed=0:00:42.27    \nframe=  216 fps=5.0 q=30.0 size=    5120KiB time=00:00:09.00 bitrate=4660.3kbits/s speed=0.21x elapsed=0:00:42.80    \n[out#0/webm @ 000001b9b2ed9b80] video:10250KiB audio:0KiB subtitle:0KiB other streams:0KiB global headers:0KiB muxing overhead: 0.023362%\nframe=  240 fps=5.6 q=25.0 Lsize=   10252KiB time=00:00:10.00 bitrate=8398.4kbits/s speed=0.233x elapsed=0:00:42.87    \n",
  "seconds": 43.03383755683899,
  "probe_out": {}
}